<mxfile host="app.diagrams.net" modified="2022-01-07T09:49:06.650Z" agent="5.0 (Windows NT 10.0; Win64; x64) AppleWebKit/537.36 (KHTML, like Gecko) Chrome/96.0.4664.110 Safari/537.36 Edg/96.0.1054.62" etag="PtCsEdSfQH5mtDEwLKvD" version="16.0.0" type="github">
  <diagram id="C5RBs43oDa-KdzZeNtuy" name="Page-1">
    <mxGraphModel dx="762" dy="451" grid="1" gridSize="10" guides="1" tooltips="1" connect="1" arrows="1" fold="1" page="1" pageScale="1" pageWidth="827" pageHeight="1169" math="0" shadow="0">
      <root>
        <mxCell id="WIyWlLk6GJQsqaUBKTNV-0" />
        <mxCell id="WIyWlLk6GJQsqaUBKTNV-1" parent="WIyWlLk6GJQsqaUBKTNV-0" />
        <mxCell id="2ovcCtWtTsT-ZTR0fn4X-56" value="对账手工匹配计算流程" style="swimlane;" parent="WIyWlLk6GJQsqaUBKTNV-1" vertex="1">
          <mxGeometry x="110" y="100" width="650" height="1020" as="geometry" />
        </mxCell>
        <mxCell id="KlOAI8x9i0T9ViwGN7gp-22" style="edgeStyle=orthogonalEdgeStyle;rounded=0;orthogonalLoop=1;jettySize=auto;html=1;" edge="1" parent="2ovcCtWtTsT-ZTR0fn4X-56" source="2ovcCtWtTsT-ZTR0fn4X-11" target="KlOAI8x9i0T9ViwGN7gp-16">
          <mxGeometry relative="1" as="geometry" />
        </mxCell>
        <mxCell id="2ovcCtWtTsT-ZTR0fn4X-11" value="生成匹配ID" style="rounded=1;whiteSpace=wrap;html=1;fontSize=12;glass=0;strokeWidth=1;shadow=0;fillColor=#1ba1e2;fontColor=#ffffff;strokeColor=#006EAF;" parent="2ovcCtWtTsT-ZTR0fn4X-56" vertex="1">
          <mxGeometry x="261" y="652" width="120" height="45" as="geometry" />
        </mxCell>
        <mxCell id="WIyWlLk6GJQsqaUBKTNV-3" value="开始" style="rounded=1;whiteSpace=wrap;html=1;fontSize=12;glass=0;strokeWidth=1;shadow=0;fillColor=#d80073;fontColor=#ffffff;strokeColor=#A50040;" parent="2ovcCtWtTsT-ZTR0fn4X-56" vertex="1">
          <mxGeometry x="276" y="32" width="90" height="30" as="geometry" />
        </mxCell>
        <mxCell id="WIyWlLk6GJQsqaUBKTNV-7" value="提交本方及&lt;br&gt;对方凭证集" style="rounded=1;whiteSpace=wrap;html=1;fontSize=12;glass=0;strokeWidth=1;shadow=0;fillColor=#1ba1e2;fontColor=#ffffff;strokeColor=#006EAF;" parent="2ovcCtWtTsT-ZTR0fn4X-56" vertex="1">
          <mxGeometry x="261" y="98" width="120" height="40" as="geometry" />
        </mxCell>
        <mxCell id="2ovcCtWtTsT-ZTR0fn4X-25" style="edgeStyle=orthogonalEdgeStyle;rounded=0;orthogonalLoop=1;jettySize=auto;html=1;entryX=0.5;entryY=0;entryDx=0;entryDy=0;" parent="2ovcCtWtTsT-ZTR0fn4X-56" source="WIyWlLk6GJQsqaUBKTNV-3" target="WIyWlLk6GJQsqaUBKTNV-7" edge="1">
          <mxGeometry relative="1" as="geometry" />
        </mxCell>
        <mxCell id="2ovcCtWtTsT-ZTR0fn4X-58" style="edgeStyle=orthogonalEdgeStyle;rounded=0;orthogonalLoop=1;jettySize=auto;html=1;" parent="2ovcCtWtTsT-ZTR0fn4X-56" source="2ovcCtWtTsT-ZTR0fn4X-1" target="2ovcCtWtTsT-ZTR0fn4X-3" edge="1">
          <mxGeometry relative="1" as="geometry" />
        </mxCell>
        <mxCell id="2ovcCtWtTsT-ZTR0fn4X-1" value="生成数据集&lt;br&gt;映射关系" style="rounded=1;whiteSpace=wrap;html=1;fontSize=12;glass=0;strokeWidth=1;shadow=0;fillColor=#1ba1e2;fontColor=#ffffff;strokeColor=#006EAF;" parent="2ovcCtWtTsT-ZTR0fn4X-56" vertex="1">
          <mxGeometry x="261" y="170" width="120" height="40" as="geometry" />
        </mxCell>
        <mxCell id="2ovcCtWtTsT-ZTR0fn4X-24" style="edgeStyle=orthogonalEdgeStyle;rounded=0;orthogonalLoop=1;jettySize=auto;html=1;" parent="2ovcCtWtTsT-ZTR0fn4X-56" source="WIyWlLk6GJQsqaUBKTNV-7" target="2ovcCtWtTsT-ZTR0fn4X-1" edge="1">
          <mxGeometry relative="1" as="geometry" />
        </mxCell>
        <mxCell id="2ovcCtWtTsT-ZTR0fn4X-3" value="校验数据集凭证" style="rounded=1;whiteSpace=wrap;html=1;fontSize=12;glass=0;strokeWidth=1;shadow=0;fillColor=#1ba1e2;fontColor=#ffffff;strokeColor=#006EAF;" parent="2ovcCtWtTsT-ZTR0fn4X-56" vertex="1">
          <mxGeometry x="261" y="250" width="120" height="40" as="geometry" />
        </mxCell>
        <mxCell id="KlOAI8x9i0T9ViwGN7gp-0" value="用户可能会一次提交多家公司的凭证数据，需要按照公司进行分组" style="shape=callout;whiteSpace=wrap;html=1;perimeter=calloutPerimeter;position2=0;fillColor=#fff2cc;strokeColor=#d6b656;size=30;position=0.17;align=left;" vertex="1" parent="2ovcCtWtTsT-ZTR0fn4X-56">
          <mxGeometry x="391" y="110" width="136" height="80" as="geometry" />
        </mxCell>
        <mxCell id="KlOAI8x9i0T9ViwGN7gp-13" style="edgeStyle=orthogonalEdgeStyle;rounded=0;orthogonalLoop=1;jettySize=auto;html=1;entryX=0;entryY=0.5;entryDx=0;entryDy=0;exitX=0;exitY=0.5;exitDx=0;exitDy=0;" edge="1" parent="2ovcCtWtTsT-ZTR0fn4X-56" source="KlOAI8x9i0T9ViwGN7gp-6" target="KlOAI8x9i0T9ViwGN7gp-12">
          <mxGeometry relative="1" as="geometry">
            <Array as="points">
              <mxPoint x="271" y="370" />
              <mxPoint x="140" y="370" />
              <mxPoint x="140" y="980" />
            </Array>
          </mxGeometry>
        </mxCell>
        <mxCell id="KlOAI8x9i0T9ViwGN7gp-28" value="否" style="edgeLabel;html=1;align=center;verticalAlign=middle;resizable=0;points=[];" vertex="1" connectable="0" parent="KlOAI8x9i0T9ViwGN7gp-13">
          <mxGeometry x="-0.2985" y="-1" relative="1" as="geometry">
            <mxPoint as="offset" />
          </mxGeometry>
        </mxCell>
        <mxCell id="KlOAI8x9i0T9ViwGN7gp-6" value="校验币种&lt;br&gt;是否一致？" style="rhombus;whiteSpace=wrap;html=1;shadow=0;fontFamily=Helvetica;fontSize=12;align=center;strokeWidth=1;spacing=6;spacingTop=-4;fillColor=#fad7ac;strokeColor=#b46504;" vertex="1" parent="2ovcCtWtTsT-ZTR0fn4X-56">
          <mxGeometry x="271" y="327" width="100" height="80" as="geometry" />
        </mxCell>
        <mxCell id="KlOAI8x9i0T9ViwGN7gp-7" style="edgeStyle=orthogonalEdgeStyle;rounded=0;orthogonalLoop=1;jettySize=auto;html=1;entryX=0.5;entryY=0;entryDx=0;entryDy=0;" edge="1" parent="2ovcCtWtTsT-ZTR0fn4X-56" target="KlOAI8x9i0T9ViwGN7gp-6">
          <mxGeometry relative="1" as="geometry">
            <mxPoint x="321" y="290" as="sourcePoint" />
          </mxGeometry>
        </mxCell>
        <mxCell id="KlOAI8x9i0T9ViwGN7gp-10" value="是" style="edgeStyle=orthogonalEdgeStyle;rounded=0;orthogonalLoop=1;jettySize=auto;html=1;entryX=0.5;entryY=0;entryDx=0;entryDy=0;" edge="1" parent="2ovcCtWtTsT-ZTR0fn4X-56" source="KlOAI8x9i0T9ViwGN7gp-6" target="KlOAI8x9i0T9ViwGN7gp-11">
          <mxGeometry x="-0.0213" relative="1" as="geometry">
            <mxPoint x="321" y="440" as="targetPoint" />
            <mxPoint as="offset" />
          </mxGeometry>
        </mxCell>
        <mxCell id="KlOAI8x9i0T9ViwGN7gp-14" style="edgeStyle=orthogonalEdgeStyle;rounded=0;orthogonalLoop=1;jettySize=auto;html=1;entryX=0;entryY=0.5;entryDx=0;entryDy=0;exitX=0;exitY=0.5;exitDx=0;exitDy=0;" edge="1" parent="2ovcCtWtTsT-ZTR0fn4X-56" source="KlOAI8x9i0T9ViwGN7gp-11" target="KlOAI8x9i0T9ViwGN7gp-12">
          <mxGeometry relative="1" as="geometry">
            <Array as="points">
              <mxPoint x="200" y="494" />
              <mxPoint x="200" y="980" />
            </Array>
          </mxGeometry>
        </mxCell>
        <mxCell id="KlOAI8x9i0T9ViwGN7gp-29" value="否" style="edgeLabel;html=1;align=center;verticalAlign=middle;resizable=0;points=[];" vertex="1" connectable="0" parent="KlOAI8x9i0T9ViwGN7gp-14">
          <mxGeometry x="-0.0953" relative="1" as="geometry">
            <mxPoint as="offset" />
          </mxGeometry>
        </mxCell>
        <mxCell id="KlOAI8x9i0T9ViwGN7gp-20" value="是" style="edgeStyle=orthogonalEdgeStyle;rounded=0;orthogonalLoop=1;jettySize=auto;html=1;" edge="1" parent="2ovcCtWtTsT-ZTR0fn4X-56" source="KlOAI8x9i0T9ViwGN7gp-11" target="KlOAI8x9i0T9ViwGN7gp-15">
          <mxGeometry relative="1" as="geometry" />
        </mxCell>
        <mxCell id="KlOAI8x9i0T9ViwGN7gp-11" value="校验金额&lt;br&gt;是否一致？" style="rhombus;whiteSpace=wrap;html=1;shadow=0;fontFamily=Helvetica;fontSize=12;align=center;strokeWidth=1;spacing=6;spacingTop=-4;fillColor=#fad7ac;strokeColor=#b46504;" vertex="1" parent="2ovcCtWtTsT-ZTR0fn4X-56">
          <mxGeometry x="271" y="454" width="100" height="80" as="geometry" />
        </mxCell>
        <mxCell id="KlOAI8x9i0T9ViwGN7gp-12" value="结束" style="rounded=1;whiteSpace=wrap;html=1;fontSize=12;glass=0;strokeWidth=1;shadow=0;fillColor=#d80073;fontColor=#ffffff;strokeColor=#A50040;" vertex="1" parent="2ovcCtWtTsT-ZTR0fn4X-56">
          <mxGeometry x="276" y="965" width="90" height="30" as="geometry" />
        </mxCell>
        <mxCell id="KlOAI8x9i0T9ViwGN7gp-21" style="edgeStyle=orthogonalEdgeStyle;rounded=0;orthogonalLoop=1;jettySize=auto;html=1;" edge="1" parent="2ovcCtWtTsT-ZTR0fn4X-56" source="KlOAI8x9i0T9ViwGN7gp-15" target="2ovcCtWtTsT-ZTR0fn4X-11">
          <mxGeometry relative="1" as="geometry" />
        </mxCell>
        <mxCell id="KlOAI8x9i0T9ViwGN7gp-15" value="遍历数据集" style="rounded=1;whiteSpace=wrap;html=1;fontSize=12;glass=0;strokeWidth=1;shadow=0;fillColor=#1ba1e2;fontColor=#ffffff;strokeColor=#006EAF;" vertex="1" parent="2ovcCtWtTsT-ZTR0fn4X-56">
          <mxGeometry x="261" y="577" width="120" height="40" as="geometry" />
        </mxCell>
        <mxCell id="KlOAI8x9i0T9ViwGN7gp-23" value="是" style="edgeStyle=orthogonalEdgeStyle;rounded=0;orthogonalLoop=1;jettySize=auto;html=1;" edge="1" parent="2ovcCtWtTsT-ZTR0fn4X-56" source="KlOAI8x9i0T9ViwGN7gp-16" target="KlOAI8x9i0T9ViwGN7gp-17">
          <mxGeometry relative="1" as="geometry" />
        </mxCell>
        <mxCell id="KlOAI8x9i0T9ViwGN7gp-25" value="否" style="edgeStyle=orthogonalEdgeStyle;rounded=0;orthogonalLoop=1;jettySize=auto;html=1;" edge="1" parent="2ovcCtWtTsT-ZTR0fn4X-56" source="KlOAI8x9i0T9ViwGN7gp-16" target="KlOAI8x9i0T9ViwGN7gp-19">
          <mxGeometry relative="1" as="geometry" />
        </mxCell>
        <mxCell id="KlOAI8x9i0T9ViwGN7gp-16" value="是否有对方&lt;br&gt;公司权限？" style="rhombus;whiteSpace=wrap;html=1;shadow=0;fontFamily=Helvetica;fontSize=12;align=center;strokeWidth=1;spacing=6;spacingTop=-4;fillColor=#fad7ac;strokeColor=#b46504;" vertex="1" parent="2ovcCtWtTsT-ZTR0fn4X-56">
          <mxGeometry x="271" y="730" width="100" height="80" as="geometry" />
        </mxCell>
        <mxCell id="KlOAI8x9i0T9ViwGN7gp-24" style="edgeStyle=orthogonalEdgeStyle;rounded=0;orthogonalLoop=1;jettySize=auto;html=1;" edge="1" parent="2ovcCtWtTsT-ZTR0fn4X-56" source="KlOAI8x9i0T9ViwGN7gp-17" target="KlOAI8x9i0T9ViwGN7gp-12">
          <mxGeometry relative="1" as="geometry" />
        </mxCell>
        <mxCell id="KlOAI8x9i0T9ViwGN7gp-17" value="更新数据为已匹配" style="rounded=1;whiteSpace=wrap;html=1;fontSize=12;glass=0;strokeWidth=1;shadow=0;fillColor=#1ba1e2;fontColor=#ffffff;strokeColor=#006EAF;" vertex="1" parent="2ovcCtWtTsT-ZTR0fn4X-56">
          <mxGeometry x="261" y="860" width="120" height="45" as="geometry" />
        </mxCell>
        <mxCell id="KlOAI8x9i0T9ViwGN7gp-27" style="edgeStyle=orthogonalEdgeStyle;rounded=0;orthogonalLoop=1;jettySize=auto;html=1;entryX=1;entryY=0.5;entryDx=0;entryDy=0;exitX=0.5;exitY=1;exitDx=0;exitDy=0;" edge="1" parent="2ovcCtWtTsT-ZTR0fn4X-56" source="KlOAI8x9i0T9ViwGN7gp-18" target="KlOAI8x9i0T9ViwGN7gp-12">
          <mxGeometry relative="1" as="geometry" />
        </mxCell>
        <mxCell id="KlOAI8x9i0T9ViwGN7gp-18" value="发送待办消息" style="rounded=1;whiteSpace=wrap;html=1;fontSize=12;glass=0;strokeWidth=1;shadow=0;fillColor=#1ba1e2;fontColor=#ffffff;strokeColor=#006EAF;" vertex="1" parent="2ovcCtWtTsT-ZTR0fn4X-56">
          <mxGeometry x="440" y="860" width="120" height="45" as="geometry" />
        </mxCell>
        <mxCell id="KlOAI8x9i0T9ViwGN7gp-26" style="edgeStyle=orthogonalEdgeStyle;rounded=0;orthogonalLoop=1;jettySize=auto;html=1;" edge="1" parent="2ovcCtWtTsT-ZTR0fn4X-56" source="KlOAI8x9i0T9ViwGN7gp-19" target="KlOAI8x9i0T9ViwGN7gp-18">
          <mxGeometry relative="1" as="geometry" />
        </mxCell>
        <mxCell id="KlOAI8x9i0T9ViwGN7gp-19" value="更新数据为待确认&lt;br&gt;" style="rounded=1;whiteSpace=wrap;html=1;fontSize=12;glass=0;strokeWidth=1;shadow=0;fillColor=#1ba1e2;fontColor=#ffffff;strokeColor=#006EAF;" vertex="1" parent="2ovcCtWtTsT-ZTR0fn4X-56">
          <mxGeometry x="440" y="747.5" width="120" height="45" as="geometry" />
        </mxCell>
      </root>
    </mxGraphModel>
  </diagram>
</mxfile>
